<?xml version="1.0" encoding="utf-8"?>
<!-- Generator: Adobe Illustrator 24.1.0, SVG Export Plug-In . SVG Version: 6.00 Build 0)  -->
<svg version="1.1" id="Layer_1" xmlns="http://www.w3.org/2000/svg" xmlns:xlink="http://www.w3.org/1999/xlink" x="0px" y="0px"
	 viewBox="0 0 329.62 312.42" style="enable-background:new 0 0 329.62 312.42;" xml:space="preserve" width="512px" height="512px">
<g>
	<path d="M329.62,204.72c-1.76,1.46-3.33,3.31-5.32,4.33c-66.11,34.03-132.28,67.95-198.38,102c-3.66,1.88-6.59,1.81-10.19-0.09
		c-36.87-19.44-73.8-38.76-110.77-58.02c-3.48-1.81-4.96-4.14-4.95-8.1c0.09-44.2,0.1-88.4-0.01-132.6
		c-0.01-4.22,1.57-6.65,5.29-8.55C71.48,69.8,137.61,35.83,203.76,1.85c1.01-0.52,1.93-1.23,2.89-1.85c1.29,0,2.58,0,3.86,0
		c0.61,0.4,1.2,0.86,1.85,1.2c37.25,19.53,74.53,39.02,111.74,58.62c2.07,1.09,3.69,3.02,5.51,4.56
		C329.62,111.16,329.62,157.94,329.62,204.72z M126.32,298.28c1.62-0.77,2.67-1.23,3.7-1.76c61.95-31.81,123.89-63.64,185.87-95.39
		c2-1.02,2.71-2.14,2.71-4.4c-0.07-39.58-0.04-79.17-0.05-118.75c0-0.82-0.09-1.64-0.16-2.87c-1.34,0.62-2.39,1.06-3.4,1.58
		c-61.95,31.8-123.9,63.62-185.88,95.37c-2.1,1.08-2.85,2.29-2.85,4.67c0.09,31.11,0.06,62.22,0.06,93.33
		C126.32,279.25,126.32,288.46,126.32,298.28z M11.18,118.9c-0.06,1.21-0.12,1.83-0.12,2.46c0,39.89,0.02,79.78-0.07,119.67
		c-0.01,2.28,1.03,3.16,2.75,4.07c32.84,17.17,65.66,34.37,98.49,51.56c0.91,0.47,1.86,0.85,2.96,1.35
		c0.07-0.88,0.14-1.41,0.14-1.94c0.01-40.1-0.01-80.21,0.08-120.31c0-2.22-1.18-2.9-2.73-3.72c-23.64-12.35-47.26-24.72-70.88-37.09
		C31.74,129.68,21.7,124.42,11.18,118.9z M311.8,65.95c-0.95-0.61-1.62-1.1-2.35-1.48c-32.84-17.21-65.69-34.39-98.5-51.66
		c-1.77-0.93-3.05-0.76-4.71,0.1C144.3,44.75,82.34,76.56,20.39,108.37c-0.78,0.4-1.51,0.92-2.51,1.53
		c1.34,0.75,2.35,1.35,3.38,1.89c32.18,16.85,64.38,33.67,96.51,50.61c2.4,1.27,4.16,1.12,6.48-0.08
		c47.05-24.24,94.15-48.4,141.23-72.58C280.82,81.87,296.16,73.99,311.8,65.95z" fill="#ffffff" />
	<path d="M280.02,65.33c-0.07,2.92-1.97,4.42-4.41,5.67c-18.31,9.35-36.58,18.76-54.87,28.15c-2.76,1.42-5.41,3.16-8.32,4.15
		c-1.83,0.62-4.41,0.85-6.02,0.02c-22.37-11.51-44.67-23.18-66.87-35.02c-1.54-0.82-2.76-3.2-3.11-5.05
		c-0.49-2.63,1.59-4.15,3.84-5.3c19.63-10.05,39.22-20.2,58.87-30.2c11.77-5.99,8.47-6.16,20.27,0.42
		c18.62,10.37,37.21,20.79,55.81,31.19C277.61,60.69,279.88,62.09,280.02,65.33z M203.61,37.77c-16.78,8.63-33.14,17.04-49.96,25.69
		c16.91,8.84,33.26,17.39,49.96,26.12C203.61,72.19,203.61,55.31,203.61,37.77z M214.95,89.76c16.04-8.23,31.75-16.29,48.02-24.64
		c-16.26-9.1-31.96-17.89-48.02-26.88C214.95,55.66,214.95,72.45,214.95,89.76z" fill="#ffffff" />
	<path d="M120.93,151.12c-1.31-0.53-2.54-0.9-3.65-1.48c-21.74-11.34-43.45-22.71-65.2-34.04c-2.33-1.21-4.22-2.72-4.25-5.53
		c-0.03-2.97,1.95-4.48,4.41-5.73c21.25-10.87,42.5-21.75,63.68-32.76c3.51-1.83,6.44-1.8,9.92,0.18
		c20.3,11.53,40.69,22.88,61.08,34.25c2.44,1.36,4.69,2.81,4.68,5.95c-0.01,3.15-2.27,4.56-4.77,5.84
		c-20.59,10.52-41.15,21.1-61.73,31.63C123.8,150.11,122.38,150.55,120.93,151.12z M115.18,84.4
		c-16.68,8.57-33.02,16.98-49.91,25.66c17.01,8.89,33.33,17.42,49.91,26.08C115.18,118.65,115.18,101.78,115.18,84.4z M126.56,84.82
		c0,17.4,0,34.23,0,51.55c16.14-8.28,31.89-16.37,48.02-24.65C158.45,102.68,142.7,93.86,126.56,84.82z" fill="#ffffff" />
</g>
</svg>
