<?xml version="1.0" encoding="utf-8"?>
<!-- Generator: Adobe Illustrator 24.0.0, SVG Export Plug-In . SVG Version: 6.00 Build 0)  -->
<svg version="1.1" id="Layer_1" xmlns="http://www.w3.org/2000/svg" xmlns:xlink="http://www.w3.org/1999/xlink" x="0px" y="0px"
	 viewBox="0 0 204.4 298.2" style="enable-background:new 0 0 204.4 298.2;" xml:space="preserve" wdth="512px" height="512px" >
<style type="text/css">
	.st0{stroke:#ffffff;stroke-width:3;stroke-miterlimit:10;}
</style>
<g>
	<path d="M-0.3,149c0-42.6,0-85.1,0-127.7C-0.3,6.8,6.4,0,20.7,0c54.3,0,108.6,0,163,0c14.4,0,21,6.7,21,21.2
		c0,85.4,0,170.7,0,256.1c0,14-6.8,20.9-20.7,20.9c-54.5,0-109.1,0-163.6,0c-13.9,0-20.7-6.9-20.7-20.9
		C-0.3,234.5-0.3,191.7-0.3,149z M9,148.5c0,42.3,0,84.7,0,127c0,11,2.2,13.3,13.1,13.3c53.4,0,106.9,0,160.3,0
		c10.5,0,12.9-2.4,12.9-12.8c0-84.5,0-168.9,0-253.4c0-11-2.2-13.3-13.1-13.3c-53.4,0-106.9,0-160.3,0C11.4,9.4,9,11.7,9,22.2
		C9,64.3,9,106.4,9,148.5z" fill="#ffffff"/>
	<path d="M186.1,149.1c0,40.6,0,81.2,0,121.8c0,7.9-0.8,8.7-8.9,8.7c-49.7,0-99.4,0-149.1,0c-9.5,0-9.8-0.3-9.8-9.7
		c0-80.8,0-161.5,0-242.3c0-8.4,0.7-9,9.2-9c49.9,0,99.8,0,149.8,0c8.1,0,8.8,0.7,8.8,8.7C186.1,67.9,186.1,108.5,186.1,149.1
		C186.1,149.1,186.1,149.1,186.1,149.1z M28.1,28.3c0,80.9,0,161.2,0,241.4c49.8,0,99.1,0,148.2,0c0-80.7,0-160.9,0-241.4
		C126.9,28.3,77.8,28.3,28.1,28.3z" fill="#ffffff"/>
	<path class="st0" d="M60.5,191.5l-0.3-0.2c-1.3-1.2-1.3-3.3-0.1-4.5c26.5-26.4,52.8-52.5,79.7-79.3c1.3-1.3,3.5-1.2,4.7,0.3
		l0.1,0.1c1,1.2,0.9,3-0.2,4.2l-79.5,79.4C63.7,192.6,61.7,192.6,60.5,191.5z" fill="#ffffff"/>
	<path class="st0" d="M121.4,107.4c-14,14-27.9,27.9-42.3,42.2c-1.3,1.3-3.3,1.2-4.5-0.1l-0.6-0.6c-1.1-1.3-1.1-3.2,0.1-4.3
		c14-14,27.9-27.8,42.4-42.1c1.3-1.3,3.4-1.2,4.6,0.2l0.5,0.6C122.6,104.4,122.5,106.3,121.4,107.4z" fill="#ffffff"/>
	<path class="st0" d="M83.2,195.6L83.2,195.6c-1.3-1.3-1.3-3.3-0.1-4.5c12.6-12.7,24.9-25,37.5-37.6c1.2-1.2,3.2-1.2,4.4-0.1
		l0.5,0.5c1.3,1.2,1.3,3.3,0,4.5c-12.6,12.3-25,24.4-38,37.2C86.4,196.8,84.5,196.8,83.2,195.6z" fill="#ffffff" />
</g>
</svg>
