<?xml version="1.0"?>
<svg xmlns="http://www.w3.org/2000/svg" xmlns:xlink="http://www.w3.org/1999/xlink" xmlns:svgjs="http://svgjs.com/svgjs" version="1.1" width="512" height="512" x="0" y="0" viewBox="0 0 480 480" style="enable-background:new 0 0 512 512" xml:space="preserve" class=""><g>
<g xmlns="http://www.w3.org/2000/svg">
	<g>
		<path d="M472,280h-32v-32h16c4.418,0,8-3.582,8-8v-64c0-4.418-3.582-8-8-8h-16v-16h16c4.418,0,8-3.582,8-8V80c0-4.418-3.582-8-8-8    h-16V48c0-4.418-3.582-8-8-8h-32c-4.418,0-8,3.582-8,8v24H88V48c0-4.418-3.582-8-8-8H48c-4.418,0-8,3.582-8,8v24H24    c-4.418,0-8,3.582-8,8v64c0,4.418,3.582,8,8,8h16v16H24c-4.418,0-8,3.582-8,8v64c0,4.418,3.582,8,8,8h16v32H8    c-4.418,0-8,3.582-8,8v32c0,4.418,3.582,8,8,8h32v104c0,4.418,3.582,8,8,8h32c4.418,0,8-3.582,8-8V328h304v104    c0,4.418,3.582,8,8,8h32c4.418,0,8-3.582,8-8V328h32c4.418,0,8-3.582,8-8v-32C480,283.582,476.418,280,472,280z M408,56h16v16h-16    V56z M56,56h16v16H56V56z M32,136V88h416v48H32z M424,152v16h-16v-16H424z M392,152v16H88v-16H392z M72,152v16H56v-16H72z M32,232    v-48h416v48H32z M424,248v32h-16v-32H424z M392,248v32H88v-32H392z M72,248v32H56v-32H72z M72,424H56v-96h16V424z M424,424h-16    v-96h16V424z M464,312H16v-16h448V312z" fill="#ffffff" data-original="#000000" style="" class=""/>
	</g>
</g>
<g xmlns="http://www.w3.org/2000/svg">
</g>
<g xmlns="http://www.w3.org/2000/svg">
</g>
<g xmlns="http://www.w3.org/2000/svg">
</g>
<g xmlns="http://www.w3.org/2000/svg">
</g>
<g xmlns="http://www.w3.org/2000/svg">
</g>
<g xmlns="http://www.w3.org/2000/svg">
</g>
<g xmlns="http://www.w3.org/2000/svg">
</g>
<g xmlns="http://www.w3.org/2000/svg">
</g>
<g xmlns="http://www.w3.org/2000/svg">
</g>
<g xmlns="http://www.w3.org/2000/svg">
</g>
<g xmlns="http://www.w3.org/2000/svg">
</g>
<g xmlns="http://www.w3.org/2000/svg">
</g>
<g xmlns="http://www.w3.org/2000/svg">
</g>
<g xmlns="http://www.w3.org/2000/svg">
</g>
<g xmlns="http://www.w3.org/2000/svg">
</g>
</g></svg>
