<?xml version="1.0"?>
<svg xmlns="http://www.w3.org/2000/svg" height="512px" viewBox="0 -35 512 512" width="512px" class=""><g><path d="m504.5 321.832031c-4.144531 0-7.5 3.359375-7.5 7.5v19.335938c0 4.140625 3.355469 7.5 7.5 7.5s7.5-3.359375 7.5-7.5v-19.335938c0-4.140625-3.355469-7.5-7.5-7.5zm0 0" data-original="#000000" class="active-path" data-old_color="#000000" fill="#FFFFFF"/><path d="m504.5 17h-199.5v-.113281c0-9.3125-7.574219-16.886719-16.886719-16.886719h-64.226562c-9.3125 0-16.886719 7.574219-16.886719 16.886719v.113281h-199.5c-4.144531 0-7.5 3.355469-7.5 7.5v67.832031c0 4.144531 3.355469 7.5 7.5 7.5s7.5-3.355469 7.5-7.5v-60.332031h192v13.113281c0 .636719.035156 1.269531.105469 1.886719h-169.605469c-4.144531 0-7.5 3.355469-7.5 7.5v372.5h-15v-302.332031c0-4.144531-3.355469-7.5-7.5-7.5s-7.5 3.355469-7.5 7.5v309.832031c0 4.144531 3.355469 7.5 7.5 7.5h497c4.144531 0 7.5-3.355469 7.5-7.5v-53.832031c0-4.144531-3.355469-7.5-7.5-7.5s-7.5 3.355469-7.5 7.5v46.332031h-15v-372.5c0-4.144531-3.355469-7.5-7.5-7.5h-169.605469c.070313-.617188.105469-1.25.105469-1.886719v-13.113281h192v264.667969c0 4.140625 3.355469 7.5 7.5 7.5s7.5-3.359375 7.5-7.5v-272.167969c0-4.144531-3.355469-7.5-7.5-7.5zm-137.5 45v365h-222v-365zm-322 365v-365h85v365zm422-365v365h-85v-365zm-243.113281-15c-1.039063 0-1.886719-.847656-1.886719-1.886719v-28.226562c0-1.039063.847656-1.886719 1.886719-1.886719h64.226562c1.042969 0 1.886719.847656 1.886719 1.886719v28.226562c0 1.042969-.84375 1.886719-1.886719 1.886719zm0 0" data-original="#000000" class="active-path" data-old_color="#000000" fill="#FFFFFF"/><path d="m271 24.5h-30c-4.144531 0-7.5 3.355469-7.5 7.5s3.355469 7.5 7.5 7.5h30c4.144531 0 7.5-3.355469 7.5-7.5s-3.355469-7.5-7.5-7.5zm0 0" data-original="#000000" class="active-path" data-old_color="#000000" fill="#FFFFFF"/><path d="m106.5 221.5c-4.144531 0-7.5 3.355469-7.5 7.5v27.332031c0 4.144531 3.355469 7.5 7.5 7.5s7.5-3.355469 7.5-7.5v-27.332031c0-4.144531-3.355469-7.5-7.5-7.5zm0 0" data-original="#000000" class="active-path" data-old_color="#000000" fill="#FFFFFF"/><path d="m405.5 263.832031c4.144531 0 7.5-3.355469 7.5-7.5v-27.332031c0-4.144531-3.355469-7.5-7.5-7.5s-7.5 3.355469-7.5 7.5v27.332031c0 4.144531 3.355469 7.5 7.5 7.5zm0 0" data-original="#000000" class="active-path" data-old_color="#000000" fill="#FFFFFF"/></g> </svg>
